<?xml version="1.0" encoding="UTF-8" standalone="no"?>
<!DOCTYPE svg PUBLIC "-//W3C//DTD SVG 1.1//EN" "http://www.w3.org/Graphics/SVG/1.1/DTD/svg11.dtd">
<!-- Generated by graphviz version 2.26.3 (20100126.1600)
 -->
<!-- Title: Classes Pages: 1 -->
<svg xmlns="http://www.w3.org/2000/svg" xmlns:xlink="http://www.w3.org/1999/xlink" width="726pt" height="654pt">
<g id="viewport" class="graph" transform="scale(1 1) rotate(0) translate(4 650.2)">
<title>Classes</title>
<polygon fill="white" stroke="white" points="-4,5 -4,-650.2 723,-650.2 723,5 -4,5"/>
<!-- 09a15e9660c1ebc6f429d818825ce0c6 -->
<g id="node1" class="node"><title>09a15e9660c1ebc6f429d818825ce0c6</title>
<polygon fill="white" stroke="black" points="63,-341.157 1,-341.157 1,-305.157 63,-305.157 63,-341.157"/>
<text text-anchor="middle" x="32" y="-318.057" font-family="Times,serif" font-size="14.00" fill="gray">stdClass</text>
</g>
<!-- d1457b72c3fb323a2671125aef3eab5d -->
<g id="node2" class="node"><title>d1457b72c3fb323a2671125aef3eab5d</title>
<polygon fill="white" stroke="black" points="192,-341.157 138,-341.157 138,-305.157 192,-305.157 192,-341.157"/>
<text text-anchor="middle" x="165" y="-318.057" font-family="Times,serif" font-size="14.00" fill="gray">?</text>
</g>
<!-- d1457b72c3fb323a2671125aef3eab5d&#45;&gt;09a15e9660c1ebc6f429d818825ce0c6 -->
<g id="edge2" class="edge"><title>d1457b72c3fb323a2671125aef3eab5d-&gt;09a15e9660c1ebc6f429d818825ce0c6</title>
<path fill="none" stroke="black" d="M137.765,-323.157C119.431,-323.157 94.8933,-323.157 74.0685,-323.157"/>
<polygon fill="none" stroke="black" points="73.8793,-319.657 63.8793,-323.157 73.8792,-326.657 73.8793,-319.657"/>
</g>
<!-- c51e8d861978160ba843a86172a0d968 -->
<g id="node3" class="node"><title>c51e8d861978160ba843a86172a0d968</title>
<polygon fill="white" stroke="black" points="397,-618.157 339,-618.157 339,-582.157 397,-582.157 397,-618.157"/>
<text text-anchor="middle" x="368" y="-595.057" font-family="Times,serif" font-size="14.00" fill="gray">Bundle</text>
</g>
<!-- c51e8d861978160ba843a86172a0d968&#45;&gt;d1457b72c3fb323a2671125aef3eab5d -->
<g id="edge4" class="edge"><title>c51e8d861978160ba843a86172a0d968-&gt;d1457b72c3fb323a2671125aef3eab5d</title>
<path fill="none" stroke="black" d="M345.66,-581.985C322.167,-561.624 285.904,-526.422 266,-488.157 231.319,-421.483 304.154,-323.103 229,-323.157"/>
</g>
<!-- 0ab1803cc1267562cda13a64076d522f -->
<g id="node4" class="node"><title>0ab1803cc1267562cda13a64076d522f</title>
<a xlink:href="_BazingaJqueryUiBundle.html" xlink:title="BazingaJqueryUiBundle" target="_top">
<polygon fill="white" stroke="black" points="710,-618.157 552,-618.157 552,-582.157 710,-582.157 710,-618.157"/>
<text text-anchor="middle" x="631" y="-595.057" font-family="Times,serif" font-size="14.00">BazingaJqueryUiBundle</text>
</a>
</g>
<!-- 0ab1803cc1267562cda13a64076d522f&#45;&gt;c51e8d861978160ba843a86172a0d968 -->
<g id="edge6" class="edge"><title>0ab1803cc1267562cda13a64076d522f-&gt;c51e8d861978160ba843a86172a0d968</title>
<path fill="none" stroke="black" d="M551.735,-600.157C504.177,-600.157 445.735,-600.157 407.715,-600.157"/>
<polygon fill="none" stroke="black" points="407.559,-596.657 397.559,-600.157 407.559,-603.657 407.559,-596.657"/>
</g>
<!-- ec08c9ae73d5fa79ec0ba8565c4b7c92 -->
<g id="node5" class="node"><title>ec08c9ae73d5fa79ec0ba8565c4b7c92</title>
<polygon fill="white" stroke="black" points="405,-479.157 331,-479.157 331,-443.157 405,-443.157 405,-479.157"/>
<text text-anchor="middle" x="368" y="-456.057" font-family="Times,serif" font-size="14.00" fill="gray">Extension</text>
</g>
<!-- ec08c9ae73d5fa79ec0ba8565c4b7c92&#45;&gt;d1457b72c3fb323a2671125aef3eab5d -->
<g id="edge8" class="edge"><title>ec08c9ae73d5fa79ec0ba8565c4b7c92-&gt;d1457b72c3fb323a2671125aef3eab5d</title>
<path fill="none" stroke="black" d="M352.42,-443.114C319.778,-405.704 245.833,-323.145 229,-323.157"/>
</g>
<!-- 1efeed5cd30820533121501f158f32f7 -->
<g id="node6" class="node"><title>1efeed5cd30820533121501f158f32f7</title>
<a xlink:href="_DependencyInjection_BazingaJqueryUiExtension.html" xlink:title="BazingaJqueryUiExtension" target="_top">
<polygon fill="white" stroke="black" points="718,-479.157 544,-479.157 544,-443.157 718,-443.157 718,-479.157"/>
<text text-anchor="middle" x="631" y="-456.057" font-family="Times,serif" font-size="14.00">BazingaJqueryUiExtension</text>
</a>
</g>
<!-- 1efeed5cd30820533121501f158f32f7&#45;&gt;ec08c9ae73d5fa79ec0ba8565c4b7c92 -->
<g id="edge10" class="edge"><title>1efeed5cd30820533121501f158f32f7-&gt;ec08c9ae73d5fa79ec0ba8565c4b7c92</title>
<path fill="none" stroke="black" d="M543.79,-461.157C500.921,-461.157 450.942,-461.157 415.258,-461.157"/>
<polygon fill="none" stroke="black" points="415.129,-457.657 405.129,-461.157 415.129,-464.657 415.129,-457.657"/>
</g>
<!-- 274c861c892915c58f9865ba51a1f5b6 -->
<g id="node7" class="node"><title>274c861c892915c58f9865ba51a1f5b6</title>
<polygon fill="white" stroke="black" points="396,-341.157 340,-341.157 340,-305.157 396,-305.157 396,-341.157"/>
<text text-anchor="middle" x="368" y="-318.057" font-family="Times,serif" font-size="14.00" fill="gray">Helper</text>
</g>
<!-- 274c861c892915c58f9865ba51a1f5b6&#45;&gt;d1457b72c3fb323a2671125aef3eab5d -->
<g id="edge12" class="edge"><title>274c861c892915c58f9865ba51a1f5b6-&gt;d1457b72c3fb323a2671125aef3eab5d</title>
<path fill="none" stroke="black" d="M339.781,-323.145C311.697,-323.136 267.37,-323.13 229,-323.157"/>
</g>
<!-- 526b921d9e695461b86b67b74f2cf55f -->
<g id="node8" class="node"><title>526b921d9e695461b86b67b74f2cf55f</title>
<a xlink:href="_Templating_Helper_UiHelper.html" xlink:title="UiHelper" target="_top">
<polygon fill="white" stroke="black" points="666,-341.157 596,-341.157 596,-305.157 666,-305.157 666,-341.157"/>
<text text-anchor="middle" x="631" y="-318.057" font-family="Times,serif" font-size="14.00">UiHelper</text>
</a>
</g>
<!-- 526b921d9e695461b86b67b74f2cf55f&#45;&gt;274c861c892915c58f9865ba51a1f5b6 -->
<g id="edge14" class="edge"><title>526b921d9e695461b86b67b74f2cf55f-&gt;274c861c892915c58f9865ba51a1f5b6</title>
<path fill="none" stroke="black" d="M595.804,-323.157C546.539,-323.157 457.355,-323.157 406.416,-323.157"/>
<polygon fill="none" stroke="black" points="406.155,-319.657 396.155,-323.157 406.155,-326.657 406.155,-319.657"/>
</g>
<!-- 31cf624bafecf5c4611e50f510bf949e -->
<g id="node9" class="node"><title>31cf624bafecf5c4611e50f510bf949e</title>
<polygon fill="white" stroke="black" points="469,-202.157 267,-202.157 267,-166.157 469,-166.157 469,-202.157"/>
<text text-anchor="middle" x="368" y="-179.057" font-family="Times,serif" font-size="14.00" fill="gray">PHPUnit_Framework_TestCase</text>
</g>
<!-- 31cf624bafecf5c4611e50f510bf949e&#45;&gt;d1457b72c3fb323a2671125aef3eab5d -->
<g id="edge16" class="edge"><title>31cf624bafecf5c4611e50f510bf949e-&gt;d1457b72c3fb323a2671125aef3eab5d</title>
<path fill="none" stroke="black" d="M352.43,-202.327C319.805,-240.001 245.893,-323.145 229,-323.157"/>
</g>
<!-- cf5fbebc23317732826ad27aeae315be -->
<g id="node10" class="node"><title>cf5fbebc23317732826ad27aeae315be</title>
<a xlink:href="_Tests_Templating_Helper_UiHelperTest.html" xlink:title="UiHelperTest" target="_top">
<polygon fill="white" stroke="black" points="677,-202.157 585,-202.157 585,-166.157 677,-166.157 677,-202.157"/>
<text text-anchor="middle" x="631" y="-179.057" font-family="Times,serif" font-size="14.00">UiHelperTest</text>
</a>
</g>
<!-- cf5fbebc23317732826ad27aeae315be&#45;&gt;31cf624bafecf5c4611e50f510bf949e -->
<g id="edge18" class="edge"><title>cf5fbebc23317732826ad27aeae315be-&gt;31cf624bafecf5c4611e50f510bf949e</title>
<path fill="none" stroke="black" d="M584.284,-184.157C555.208,-184.157 516.491,-184.157 479.856,-184.157"/>
<polygon fill="none" stroke="black" points="479.588,-180.657 469.587,-184.157 479.587,-187.657 479.588,-180.657"/>
</g>
<!-- 895224c5485371d0ee76594da8064e7c -->
<g id="node11" class="node"><title>895224c5485371d0ee76594da8064e7c</title>
<polygon fill="white" stroke="black" points="424,-64.1571 312,-64.1571 312,-28.1571 424,-28.1571 424,-64.1571"/>
<text text-anchor="middle" x="368" y="-41.0571" font-family="Times,serif" font-size="14.00" fill="gray">Twig_Extension</text>
</g>
<!-- 895224c5485371d0ee76594da8064e7c&#45;&gt;d1457b72c3fb323a2671125aef3eab5d -->
<g id="edge20" class="edge"><title>895224c5485371d0ee76594da8064e7c-&gt;d1457b72c3fb323a2671125aef3eab5d</title>
<path fill="none" stroke="black" d="M229,-323.157C220.295,-323.163 210.924,-323.166 202.11,-323.166"/>
<polygon fill="none" stroke="black" points="202.093,-319.666 192.093,-323.166 202.092,-326.666 202.093,-319.666"/>
<path fill="none" stroke="black" d="M345.215,-64.4893C321.699,-84.682 285.746,-119.343 266,-157.157 231.012,-224.16 304.588,-323.103 229,-323.157"/>
</g>
<!-- 1f2fc6b0dbefbb4126ca3f7e8b20b3d9 -->
<g id="node12" class="node"><title>1f2fc6b0dbefbb4126ca3f7e8b20b3d9</title>
<a xlink:href="_Twig_Extension_UiExtension.html" xlink:title="UiExtension" target="_top">
<polygon fill="white" stroke="black" points="675,-64.1571 587,-64.1571 587,-28.1571 675,-28.1571 675,-64.1571"/>
<text text-anchor="middle" x="631" y="-41.0571" font-family="Times,serif" font-size="14.00">UiExtension</text>
</a>
</g>
<!-- 1f2fc6b0dbefbb4126ca3f7e8b20b3d9&#45;&gt;895224c5485371d0ee76594da8064e7c -->
<g id="edge22" class="edge"><title>1f2fc6b0dbefbb4126ca3f7e8b20b3d9-&gt;895224c5485371d0ee76594da8064e7c</title>
<path fill="none" stroke="black" d="M586.386,-46.1571C544.879,-46.1571 482.469,-46.1571 434.982,-46.1571"/>
<polygon fill="none" stroke="black" points="434.784,-42.6572 424.784,-46.1571 434.784,-49.6572 434.784,-42.6572"/>
</g>
</g>
<script xlink:href="js/SVGPan.js"/></svg>
